REM DIRINDEX 1\2,1\3,1\4,1\5
REM DIRNAME folder01,folder02,folder03,folder04,folder05
TITLE ""
FILE "CD1Track60.mp3" MP3
  TRACK 01 AUDIO
    TITLE "0:"
    INDEX 01 00:00:00
  TRACK 02 AUDIO
    TITLE "2:cjc100_0821"
    INDEX 01 00:00:29
  TRACK 03 AUDIO
    TITLE "2:cjc100_0822"
    INDEX 01 00:01:52
  TRACK 04 AUDIO
    TITLE "0:"
    INDEX 01 00:06:71
  TRACK 05 AUDIO
    TITLE "2:cjc100_0823"
    INDEX 01 00:07:47
  TRACK 06 AUDIO
    TITLE "2:cjc100_0824"
    INDEX 01 00:09:00
  TRACK 07 AUDIO
    TITLE "0:"
    INDEX 01 00:13:55
  TRACK 08 AUDIO
    TITLE "2:cjc100_0825"
    INDEX 01 00:14:21
  TRACK 09 AUDIO
    TITLE "2:cjc100_0826"
    INDEX 01 00:15:56
  TRACK 10 AUDIO
    TITLE "0:"
    INDEX 01 00:22:13
  TRACK 11 AUDIO
    TITLE "2:cjc100_0827"
    INDEX 01 00:22:60
  TRACK 12 AUDIO
    TITLE "2:cjc100_0828"
    INDEX 01 00:24:06
  TRACK 13 AUDIO
    TITLE "0:"
    INDEX 01 00:28:57
  TRACK 14 AUDIO
    TITLE "2:cjc100_0829"
    INDEX 01 00:29:23
  TRACK 15 AUDIO
    TITLE "2:cjc100_0830"
    INDEX 01 00:30:40
  TRACK 16 AUDIO
    TITLE "0:"
    INDEX 01 00:35:57
  TRACK 17 AUDIO
    TITLE "2:cjc100_0831"
    INDEX 01 00:36:21
  TRACK 18 AUDIO
    TITLE "2:cjc100_0832"
    INDEX 01 00:37:34
  TRACK 19 AUDIO
    TITLE "0:"
    INDEX 01 00:42:55
  TRACK 20 AUDIO
    TITLE "2:cjc100_0833"
    INDEX 01 00:43:21
  TRACK 21 AUDIO
    TITLE "2:cjc100_0834"
    INDEX 01 00:44:58
  TRACK 22 AUDIO
    TITLE "0:"
    INDEX 01 00:51:54
  TRACK 23 AUDIO
    TITLE "2:cjc100_0835"
    INDEX 01 00:52:18
  TRACK 24 AUDIO
    TITLE "2:cjc100_0836"
    INDEX 01 00:53:49
  TRACK 25 AUDIO
    TITLE "0:"
    INDEX 01 01:01:74
  TRACK 26 AUDIO
    TITLE "2:cjc100_0837"
    INDEX 01 01:02:44
  TRACK 27 AUDIO
    TITLE "2:cjc100_0838"
    INDEX 01 01:03:61
  TRACK 28 AUDIO
    TITLE "0:"
    INDEX 01 01:09:14
  TRACK 29 AUDIO
    TITLE "2:cjc100_0839"
    INDEX 01 01:09:59
  TRACK 30 AUDIO
    TITLE "2:cjc100_0840"
    INDEX 01 01:11:09
  TRACK 31 AUDIO
    TITLE "0:"
    INDEX 01 01:17:63
  TRACK 32 AUDIO
    TITLE "2:cjc100_0841"
    INDEX 01 01:18:27
  TRACK 33 AUDIO
    TITLE "2:cjc100_0842"
    INDEX 01 01:19:60
  TRACK 34 AUDIO
    TITLE "0:"
    INDEX 01 01:25:37
  TRACK 35 AUDIO
    TITLE "2:cjc100_0843"
    INDEX 01 01:26:05
  TRACK 36 AUDIO
    TITLE "2:cjc100_0844"
    INDEX 01 01:27:48
  TRACK 37 AUDIO
    TITLE "0:"
    INDEX 01 01:34:06
  TRACK 38 AUDIO
    TITLE "2:cjc100_0845"
    INDEX 01 01:34:50
  TRACK 39 AUDIO
    TITLE "2:cjc100_0846"
    INDEX 01 01:36:29
  TRACK 40 AUDIO
    TITLE "0:"
    INDEX 01 01:41:01
  TRACK 41 AUDIO
    TITLE "2:cjc100_0847"
    INDEX 01 01:41:44
  TRACK 42 AUDIO
    TITLE "2:cjc100_0848"
    INDEX 01 01:43:19
  TRACK 43 AUDIO
    TITLE "0:"
    INDEX 01 01:50:64
  TRACK 44 AUDIO
    TITLE "2:cjc100_0849"
    INDEX 01 01:51:32
  TRACK 45 AUDIO
    TITLE "2:cjc100_0850"
    INDEX 01 01:53:27
  TRACK 46 AUDIO
    TITLE "0:"
    INDEX 01 01:57:66
  TRACK 47 AUDIO
    TITLE "2:cjc100_0851"
    INDEX 01 01:58:34
  TRACK 48 AUDIO
    TITLE "2:cjc100_0852"
    INDEX 01 02:00:16
  TRACK 49 AUDIO
    TITLE "0:"
    INDEX 01 02:05:68
  TRACK 50 AUDIO
    TITLE "2:cjc100_0853"
    INDEX 01 02:06:34
  TRACK 51 AUDIO
    TITLE "2:cjc100_0854"
    INDEX 01 02:07:67
  TRACK 52 AUDIO
    TITLE "0:"
    INDEX 01 02:13:63
  TRACK 53 AUDIO
    TITLE "2:cjc100_0855"
    INDEX 01 02:14:33
  TRACK 54 AUDIO
    TITLE "2:cjc100_0856"
    INDEX 01 02:16:03
  TRACK 55 AUDIO
    TITLE "0:"
    INDEX 01 02:21:63
  TRACK 56 AUDIO
    TITLE "2:cjc100_0857"
    INDEX 01 02:22:33
  TRACK 57 AUDIO
    TITLE "2:cjc100_0858"
    INDEX 01 02:23:64
  TRACK 58 AUDIO
    TITLE "0:"
    INDEX 01 02:31:22
  TRACK 59 AUDIO
    TITLE "2:cjc100_0859"
    INDEX 01 02:31:65
  TRACK 60 AUDIO
    TITLE "2:cjc100_0860"
    INDEX 01 02:33:21
  TRACK 61 AUDIO
    TITLE "0:"
    INDEX 01 02:39:04
  TRACK 62 AUDIO
    TITLE "2:cjc100_0861"
    INDEX 01 02:39:47
  TRACK 63 AUDIO
    TITLE "2:cjc100_0862"
    INDEX 01 02:41:15
  TRACK 64 AUDIO
    TITLE "0:"
    INDEX 01 02:47:43
  TRACK 65 AUDIO
    TITLE "2:cjc100_0863"
    INDEX 01 02:47:74
  TRACK 66 AUDIO
    TITLE "2:cjc100_0864"
    INDEX 01 02:49:51
  TRACK 67 AUDIO
    TITLE "0:"
    INDEX 01 02:56:53
  TRACK 68 AUDIO
    TITLE "2:cjc100_0865"
    INDEX 01 02:57:21
  TRACK 69 AUDIO
    TITLE "2:cjc100_0866"
    INDEX 01 02:58:35
  TRACK 70 AUDIO
    TITLE "0:"
    INDEX 01 03:04:12
  TRACK 71 AUDIO
    TITLE "2:cjc100_0867"
    INDEX 01 03:04:61
  TRACK 72 AUDIO
    TITLE "2:cjc100_0868"
    INDEX 01 03:06:56
  TRACK 73 AUDIO
    TITLE "0:"
    INDEX 01 03:12:13
  TRACK 74 AUDIO
    TITLE "2:cjc100_0869"
    INDEX 01 03:12:52
  TRACK 75 AUDIO
    TITLE "2:cjc100_0870"
    INDEX 01 03:14:24
  TRACK 76 AUDIO
    TITLE "0:"
    INDEX 01 03:22:25
  TRACK 77 AUDIO
    TITLE "2:cjc100_0871"
    INDEX 01 03:22:74
  TRACK 78 AUDIO
    TITLE "2:cjc100_0872"
    INDEX 01 03:24:28
  TRACK 79 AUDIO
    TITLE "0:"
    INDEX 01 03:30:41
  TRACK 80 AUDIO
    TITLE "2:cjc100_0873"
    INDEX 01 03:31:03
  TRACK 81 AUDIO
    TITLE "2:cjc100_0874"
    INDEX 01 03:32:22
  TRACK 82 AUDIO
    TITLE "0:"
    INDEX 01 03:38:73
  TRACK 83 AUDIO
    TITLE "2:cjc100_0875"
    INDEX 01 03:39:34
  TRACK 84 AUDIO
    TITLE "2:cjc100_0876"
    INDEX 01 03:40:47
  TRACK 85 AUDIO
    TITLE "0:"
    INDEX 01 03:46:38
  TRACK 86 AUDIO
    TITLE "2:cjc100_0877"
    INDEX 01 03:47:10
  TRACK 87 AUDIO
    TITLE "2:cjc100_0878"
    INDEX 01 03:48:19
  TRACK 88 AUDIO
    TITLE "0:"
    INDEX 01 03:55:23
  TRACK 89 AUDIO
    TITLE "2:cjc100_0879"
    INDEX 01 03:55:66
  TRACK 90 AUDIO
    TITLE "2:cjc100_0880"
    INDEX 01 03:57:33
  TRACK 91 AUDIO
    TITLE "0:"
    INDEX 01 04:04:63
  TRACK 92 AUDIO
    TITLE "2:cjc100_0881"
    INDEX 01 04:05:37
  TRACK 93 AUDIO
    TITLE "2:cjc100_0882"
    INDEX 01 04:06:58
  TRACK 94 AUDIO
    TITLE "0:"
    INDEX 01 04:13:72
  TRACK 95 AUDIO
    TITLE "2:cjc100_0883"
    INDEX 01 04:14:40
  TRACK 96 AUDIO
    TITLE "2:cjc100_0884"
    INDEX 01 04:16:07
  TRACK 97 AUDIO
    TITLE "0:"
    INDEX 01 04:22:45
  TRACK 98 AUDIO
    TITLE "2:cjc100_0885"
    INDEX 01 04:23:11
  TRACK 99 AUDIO
    TITLE "2:cjc100_0886"
    INDEX 01 04:24:46
  TRACK 100 AUDIO
    TITLE "0:"
    INDEX 01 04:30:37
  TRACK 101 AUDIO
    TITLE "2:cjc100_0887"
    INDEX 01 04:31:07
  TRACK 102 AUDIO
    TITLE "2:cjc100_0888"
    INDEX 01 04:32:51
  TRACK 103 AUDIO
    TITLE "0:"
    INDEX 01 04:39:10
